<?xml version="1.0" encoding="UTF-8"?>
<!DOCTYPE svg PUBLIC "-//W3C//DTD SVG 1.1//EN" "http://www.w3.org/Graphics/SVG/1.1/DTD/svg11.dtd">
<svg xmlns="http://www.w3.org/2000/svg" version="1.1" width="171px" height="189px" style="shape-rendering:geometricPrecision; text-rendering:geometricPrecision; image-rendering:optimizeQuality; fill-rule:evenodd; clip-rule:evenodd" xmlns:xlink="http://www.w3.org/1999/xlink">
<g><path style="opacity:0.918" fill="#b01d1f" d="M 83.5,2.5 C 85.5922,2.56138 87.0922,3.56138 88,5.5C 100.439,25.6025 113.273,45.4358 126.5,65C 122.511,66.1376 118.344,66.6376 114,66.5C 110.167,66.1667 106.333,65.8333 102.5,65.5C 97.1613,56.1498 91.328,47.1498 85,38.5C 79.5807,47.0065 73.914,55.3399 68,63.5C 67.5172,64.448 67.3505,65.448 67.5,66.5C 59.328,66.9657 51.328,66.4657 43.5,65C 57.7315,44.6943 71.0648,23.8609 83.5,2.5 Z"/></g>
<g><path style="opacity:0.941" fill="#254081" d="M 12.5,71.5 C 60.6649,70.3351 108.998,70.1684 157.5,71C 133.294,107.704 109.294,144.538 85.5,181.5C 79.4107,174.639 74.9107,166.972 72,158.5C 86.9715,136.362 102.138,114.362 117.5,92.5C 86.8388,91.6668 56.1721,91.1668 25.5,91C 21.512,84.1669 17.1786,77.6669 12.5,71.5 Z"/></g>
<g><path style="opacity:0.921" fill="#254081" d="M 38.5,110.5 C 52.3272,109.339 66.3272,109.173 80.5,110C 74.9022,118.594 69.7356,127.427 65,136.5C 63.9872,138.846 62.3206,140.513 60,141.5C 52.8211,131.13 45.6544,120.797 38.5,110.5 Z"/></g>
</svg>
